<svg width="16" height="17" viewBox="0 0 16 17" fill="none" xmlns="http://www.w3.org/2000/svg">
<g clip-path="url(#clip0_35_77)">
<path d="M0.0359969 3.81402C0.0853505 3.69098 0.181548 3.59257 0.303439 3.54044C0.425329 3.48831 0.562934 3.48672 0.685997 3.53602L2.443 4.23902C2.80056 4.38202 3.19943 4.38202 3.557 4.23902L4.571 3.83302C5.16704 3.5946 5.83196 3.5946 6.428 3.83302L7.443 4.23902C7.80056 4.38202 8.19943 4.38202 8.557 4.23902L9.571 3.83302C10.167 3.5946 10.832 3.5946 11.428 3.83302L12.443 4.23902C12.8006 4.38202 13.1994 4.38202 13.557 4.23902L15.314 3.53602C15.3752 3.50999 15.441 3.49643 15.5076 3.49616C15.5741 3.49588 15.64 3.50889 15.7015 3.53442C15.7629 3.55994 15.8186 3.59748 15.8654 3.64482C15.9122 3.69216 15.949 3.74836 15.9737 3.81011C15.9985 3.87187 16.0107 3.93795 16.0096 4.00448C16.0085 4.071 15.9941 4.13664 15.9673 4.19754C15.9405 4.25844 15.9018 4.31338 15.8535 4.35914C15.8052 4.4049 15.7483 4.44055 15.686 4.46402L13.928 5.16702C13.332 5.40544 12.667 5.40544 12.071 5.16702L11.057 4.76102C10.6994 4.61802 10.3006 4.61802 9.943 4.76102L8.928 5.16702C8.33196 5.40544 7.66704 5.40544 7.071 5.16702L6.057 4.76102C5.69943 4.61802 5.30056 4.61802 4.943 4.76102L3.928 5.16702C3.33196 5.40544 2.66704 5.40544 2.071 5.16702L0.313997 4.46402C0.190955 4.41467 0.0925503 4.31847 0.0404186 4.19658C-0.011713 4.07469 -0.0133035 3.93708 0.0359969 3.81402ZM0.0359969 6.81402C0.0853505 6.69098 0.181548 6.59257 0.303439 6.54044C0.425329 6.48831 0.562934 6.48672 0.685997 6.53602L2.443 7.23902C2.80056 7.38202 3.19943 7.38202 3.557 7.23902L4.571 6.83302C5.16704 6.5946 5.83196 6.5946 6.428 6.83302L7.443 7.23902C7.80056 7.38202 8.19943 7.38202 8.557 7.23902L9.571 6.83302C10.167 6.5946 10.832 6.5946 11.428 6.83302L12.443 7.23902C12.8006 7.38202 13.1994 7.38202 13.557 7.23902L15.314 6.53602C15.3752 6.50999 15.441 6.49643 15.5076 6.49616C15.5741 6.49588 15.64 6.50889 15.7015 6.53442C15.7629 6.55994 15.8186 6.59748 15.8654 6.64482C15.9122 6.69216 15.949 6.74836 15.9737 6.81011C15.9985 6.87187 16.0107 6.93795 16.0096 7.00448C16.0085 7.071 15.9941 7.13664 15.9673 7.19754C15.9405 7.25844 15.9018 7.31338 15.8535 7.35914C15.8052 7.4049 15.7483 7.44055 15.686 7.46402L13.928 8.16702C13.332 8.40544 12.667 8.40544 12.071 8.16702L11.057 7.76102C10.6994 7.61802 10.3006 7.61802 9.943 7.76102L8.928 8.16702C8.33196 8.40544 7.66704 8.40544 7.071 8.16702L6.057 7.76102C5.69943 7.61802 5.30056 7.61802 4.943 7.76102L3.928 8.16702C3.33196 8.40544 2.66704 8.40544 2.071 8.16702L0.313997 7.46402C0.190955 7.41467 0.0925503 7.31847 0.0404186 7.19658C-0.011713 7.07469 -0.0133035 6.93708 0.0359969 6.81402ZM0.0359969 9.81402C0.0853505 9.69098 0.181548 9.59257 0.303439 9.54044C0.425329 9.48831 0.562934 9.48672 0.685997 9.53602L2.443 10.239C2.80056 10.382 3.19943 10.382 3.557 10.239L4.571 9.83302C5.16704 9.5946 5.83196 9.5946 6.428 9.83302L7.443 10.239C7.80056 10.382 8.19943 10.382 8.557 10.239L9.571 9.83302C10.167 9.5946 10.832 9.5946 11.428 9.83302L12.443 10.239C12.8006 10.382 13.1994 10.382 13.557 10.239L15.314 9.53602C15.3752 9.50999 15.441 9.49643 15.5076 9.49616C15.5741 9.49588 15.64 9.50889 15.7015 9.53442C15.7629 9.55994 15.8186 9.59748 15.8654 9.64482C15.9122 9.69216 15.949 9.74836 15.9737 9.81011C15.9985 9.87187 16.0107 9.93795 16.0096 10.0045C16.0085 10.071 15.9941 10.1366 15.9673 10.1975C15.9405 10.2584 15.9018 10.3134 15.8535 10.3591C15.8052 10.4049 15.7483 10.4406 15.686 10.464L13.928 11.167C13.332 11.4054 12.667 11.4054 12.071 11.167L11.057 10.761C10.6994 10.618 10.3006 10.618 9.943 10.761L8.928 11.167C8.33196 11.4054 7.66704 11.4054 7.071 11.167L6.057 10.761C5.69943 10.618 5.30056 10.618 4.943 10.761L3.928 11.167C3.33196 11.4054 2.66704 11.4054 2.071 11.167L0.313997 10.464C0.190955 10.4147 0.0925503 10.3185 0.0404186 10.1966C-0.011713 10.0747 -0.0133035 9.93708 0.0359969 9.81402ZM0.0359969 12.814C0.0853505 12.691 0.181548 12.5926 0.303439 12.5404C0.425329 12.4883 0.562934 12.4867 0.685997 12.536L2.443 13.239C2.80056 13.382 3.19943 13.382 3.557 13.239L4.571 12.833C5.16704 12.5946 5.83196 12.5946 6.428 12.833L7.443 13.239C7.80056 13.382 8.19943 13.382 8.557 13.239L9.571 12.833C10.167 12.5946 10.832 12.5946 11.428 12.833L12.443 13.239C12.8006 13.382 13.1994 13.382 13.557 13.239L15.314 12.536C15.3752 12.51 15.441 12.4964 15.5076 12.4962C15.5741 12.4959 15.64 12.5089 15.7015 12.5344C15.7629 12.5599 15.8186 12.5975 15.8654 12.6448C15.9122 12.6922 15.949 12.7484 15.9737 12.8101C15.9985 12.8719 16.0107 12.938 16.0096 13.0045C16.0085 13.071 15.9941 13.1366 15.9673 13.1975C15.9405 13.2584 15.9018 13.3134 15.8535 13.3591C15.8052 13.4049 15.7483 13.4406 15.686 13.464L13.928 14.167C13.332 14.4054 12.667 14.4054 12.071 14.167L11.057 13.761C10.6994 13.618 10.3006 13.618 9.943 13.761L8.928 14.167C8.33196 14.4054 7.66704 14.4054 7.071 14.167L6.057 13.761C5.69943 13.618 5.30056 13.618 4.943 13.761L3.928 14.167C3.33196 14.4054 2.66704 14.4054 2.071 14.167L0.313997 13.464C0.190955 13.4147 0.0925503 13.3185 0.0404186 13.1966C-0.011713 13.0747 -0.0133035 12.9371 0.0359969 12.814Z" fill="#6A778B"/>
</g>
<defs>
<clipPath id="clip0_35_77">
<rect width="16" height="16" fill="white" transform="translate(0 0.5)"/>
</clipPath>
</defs>
</svg>
