<svg width="16" height="17" viewBox="0 0 16 17" fill="none" xmlns="http://www.w3.org/2000/svg">
<path d="M7.99609 2.74976C8.13608 2.74894 8.27327 2.78786 8.39258 2.86108C8.48197 2.91597 8.55906 2.98824 8.61816 3.07397L8.67188 3.16479L13.5908 13.6062L13.6582 13.7498H14.75V14.2498H1.25V13.7498H2.3418L2.40918 13.6062L7.32617 3.17261C7.38733 3.04664 7.48212 2.93965 7.60059 2.86499C7.71901 2.79036 7.85612 2.75059 7.99609 2.74976ZM4.86621 9.5564L3.06152 13.3933L2.89355 13.7498H13.1055L12.9375 13.3933L11.1309 9.55835L11.0078 9.29565L10.7666 9.45679L9.5 10.3005L8.13867 9.39331L8 9.30054L7.86133 9.39331L6.5 10.3005L5.23145 9.45483L4.99023 9.2937L4.86621 9.5564ZM7.76855 3.38354L5.2959 8.64136L5.20508 8.83569L5.38379 8.95581L6.36133 9.60718L6.5 9.69995L6.63867 9.60718L8 8.69897L9.36133 9.60718L9.5 9.69995L9.63867 9.60718L10.6123 8.95776L10.792 8.83862L10.6992 8.64331L8.2207 3.38257L7.99512 2.9021L7.76855 3.38354Z" fill="#6A778B" stroke="#6A778B" stroke-width="0.5"/>
</svg>
