<svg width="16" height="17" viewBox="0 0 16 17" fill="none" xmlns="http://www.w3.org/2000/svg">
<path d="M12.0007 12.926C12.0361 12.9262 12.0708 12.9381 12.0993 12.9592C12.1275 12.9802 12.1484 13.0096 12.1589 13.0432C12.4703 14.0452 13.4039 14.6672 14.3337 14.6672C14.3777 14.6673 14.4197 14.685 14.4509 14.7161C14.4821 14.7473 14.4997 14.79 14.4997 14.8342C14.4996 14.8783 14.482 14.9202 14.4509 14.9514C14.4197 14.9826 14.3778 15.0002 14.3337 15.0002C13.5503 15.0002 12.7656 14.6192 12.2624 13.9612L12.0007 13.6174L11.735 13.9583C10.8449 15.1014 9.14664 15.1108 8.26042 14.0022L7.99968 13.677L7.73991 14.0022C6.86934 15.0911 5.21327 15.1014 4.3112 14.0168L4.02605 13.6731L3.778 14.0452C3.6199 14.282 3.41321 14.4825 3.17155 14.6331C2.71799 14.9152 2.18282 15.0002 1.66667 15.0002C1.62247 15.0002 1.57976 14.9827 1.54851 14.9514C1.51754 14.9203 1.49974 14.8782 1.49968 14.8342C1.49968 14.7901 1.51733 14.7473 1.54851 14.7161C1.57976 14.6848 1.62247 14.6672 1.66667 14.6672C2.15137 14.6672 2.61547 14.5863 2.99577 14.3499C3.32283 14.1463 3.60204 13.8175 3.77214 13.2913L3.83757 13.054C3.84599 13.0186 3.86614 12.9872 3.89421 12.9641C3.92232 12.941 3.95745 12.9274 3.99382 12.926C4.03007 12.9247 4.06567 12.9355 4.09538 12.9563C4.12509 12.9771 4.14771 13.0067 4.15886 13.0413C4.46282 13.9872 5.2213 14.4847 6.00261 14.4915C6.78043 14.498 7.54164 14.0168 7.84245 13.1155C7.85357 13.0824 7.87467 13.0538 7.903 13.0334C7.93125 13.0131 7.9649 13.0023 7.99968 13.0022C8.0346 13.0022 8.06899 13.0131 8.09734 13.0334C8.11151 13.0437 8.12421 13.0557 8.13445 13.0696L8.15788 13.1155C8.45866 14.0169 9.21902 14.498 9.99675 14.4915C10.7782 14.4848 11.5375 13.9873 11.8415 13.0413C11.8524 13.0079 11.8736 12.9789 11.902 12.9583C11.9307 12.9375 11.9653 12.9258 12.0007 12.926ZM9.05241 2.27271C10.1197 1.98677 11.2566 2.13638 12.2135 2.68872C13.1706 3.24126 13.8699 4.15154 14.1559 5.21899C14.4419 6.28636 14.2914 7.42412 13.7389 8.3811L13.5729 8.66919C13.562 8.68816 13.5473 8.70565 13.53 8.71899C13.5126 8.73231 13.4925 8.74164 13.4714 8.74731C13.4502 8.75299 13.4276 8.75408 13.4059 8.75122C13.3844 8.74832 13.3632 8.74159 13.3444 8.73071L11.8893 7.88989L12.0524 7.59888L13.0749 8.1897L13.3786 8.3645L13.5387 8.05396C13.9029 7.3471 14.0384 6.54432 13.9264 5.75708C13.8143 4.9696 13.46 4.23574 12.9128 3.65845L12.238 2.94653L12.3395 3.92212C12.3776 4.28736 12.3746 4.65605 12.3317 5.02075C12.2652 5.55402 12.0962 6.08187 11.7936 6.67993L11.5925 6.56372V7.71802L10.3063 6.97583L10.0163 6.80884L9.85027 7.09888L8.26823 9.86743L8.01823 10.304L8.51823 10.3635C9.52955 10.4835 10.4476 10.95 11.1862 11.6389C11.0863 11.6948 10.9925 11.7608 10.9059 11.8362C10.109 11.1171 9.09514 10.6663 7.99968 10.6663C6.904 10.6663 5.88989 11.1169 5.09245 11.8362C5.00615 11.7611 4.91265 11.6956 4.81316 11.6399C5.54303 10.9591 6.44823 10.4951 7.44499 10.3684L7.61003 10.3479L7.69206 10.2034L9.56316 6.92993L9.72722 6.64185L9.44011 6.47583L6.41667 4.73071C6.39779 4.71983 6.38115 4.705 6.36784 4.68774C6.3545 4.67038 6.34422 4.65031 6.33855 4.62915C6.33293 4.60814 6.33185 4.58626 6.33464 4.5647C6.33748 4.54314 6.34433 4.52203 6.35515 4.50317V4.5022L6.52214 4.21411C7.07468 3.25704 7.98496 2.55876 9.05241 2.27271ZM11.4645 3.30786C11.0444 3.54412 10.6971 3.77059 10.3952 4.01001L10.1081 4.25415C9.72751 4.60045 9.41109 4.9872 9.08659 5.47876L8.89128 5.77466L9.19792 5.95142L10.8932 6.92993L11.1872 7.09985L11.3512 6.80298C11.7357 6.11102 11.9311 5.54178 12.0016 4.97974V4.97876C12.0578 4.5253 12.0343 4.06966 11.9577 3.54907L11.8874 3.06958L11.4645 3.30786ZM10.9479 2.55103C10.184 2.38494 9.38698 2.45592 8.66472 2.75513C7.94246 3.05434 7.32862 3.56719 6.90593 4.22485L6.71745 4.5188L7.02019 4.6936L8.33073 5.45044L8.60417 5.60864L8.77702 5.34399C9.12118 4.81553 9.46258 4.39079 9.88152 4.00903C10.2395 3.68901 10.6295 3.40667 11.0446 3.16528L11.7868 2.73364L10.9479 2.55103Z" fill="#6A778B" stroke="#6A778B" stroke-width="0.666667"/>
</svg>
