<svg width="12" height="15" viewBox="0 0 12 15" fill="none" xmlns="http://www.w3.org/2000/svg">
<path d="M6 14.1666C3.05467 14.1666 0.666666 12.4453 0.666666 9.49998V9.44131C0.666666 8.02931 1.45933 6.89998 2.66667 6.16665C3.82133 5.46531 4.50467 4.17331 4.33333 2.83331L4 0.833313L5.236 1.36331C7.46229 2.3173 9.31688 3.97108 10.5187 6.07398C11.0526 7.00855 11.3334 8.06629 11.3333 9.14265V9.49998C11.3333 10.5413 11.0347 11.43 10.5187 12.1433" stroke="white" stroke-width="1.33333" stroke-linecap="round" stroke-linejoin="round"/>
<path d="M6.00001 14.1666C4.89534 14.1666 4.00001 13.2113 4.00001 12.0333C4.00001 11.1 4.67734 10.3526 5.27334 9.66798L6.00001 8.83331L6.72667 9.66798C7.32267 10.3533 8.00001 11.1 8.00001 12.0333C8.00001 13.2113 7.10467 14.1666 6.00001 14.1666Z" stroke="white" stroke-width="1.33333" stroke-linecap="round" stroke-linejoin="round"/>
</svg>
