<svg width="20" height="20" viewBox="0 0 20 20" fill="none" xmlns="http://www.w3.org/2000/svg">
<path d="M10 13C10.7956 13 11.5587 12.6839 12.1213 12.1213C12.6839 11.5587 13 10.7956 13 10C13 9.20435 12.6839 8.44129 12.1213 7.87868C11.5587 7.31607 10.7956 7 10 7C9.20435 7 8.44129 7.31607 7.87868 7.87868C7.31607 8.44129 7 9.20435 7 10C7 10.7956 7.31607 11.5587 7.87868 12.1213C8.44129 12.6839 9.20435 13 10 13ZM10.5 2.5C10.5 2.36739 10.4473 2.24021 10.3536 2.14645C10.2598 2.05268 10.1326 2 10 2C9.86739 2 9.74021 2.05268 9.64645 2.14645C9.55268 2.24021 9.5 2.36739 9.5 2.5V4.02C8.08618 4.13824 6.75998 4.75357 5.75678 5.75678C4.75357 6.75998 4.13824 8.08618 4.02 9.5H2.5C2.36739 9.5 2.24021 9.55268 2.14645 9.64645C2.05268 9.74021 2 9.86739 2 10C2 10.1326 2.05268 10.2598 2.14645 10.3536C2.24021 10.4473 2.36739 10.5 2.5 10.5H4.02C4.13824 11.9138 4.75357 13.24 5.75678 14.2432C6.75998 15.2464 8.08618 15.8618 9.5 15.98V17.5C9.5 17.6326 9.55268 17.7598 9.64645 17.8536C9.74021 17.9473 9.86739 18 10 18C10.1326 18 10.2598 17.9473 10.3536 17.8536C10.4473 17.7598 10.5 17.6326 10.5 17.5V15.98C11.9137 15.8616 13.2398 15.2462 14.243 14.243C15.2462 13.2398 15.8616 11.9137 15.98 10.5H17.5C17.6326 10.5 17.7598 10.4473 17.8536 10.3536C17.9473 10.2598 18 10.1326 18 10C18 9.86739 17.9473 9.74021 17.8536 9.64645C17.7598 9.55268 17.6326 9.5 17.5 9.5H15.98C15.8618 8.08618 15.2464 6.75998 14.2432 5.75678C13.24 4.75357 11.9138 4.13824 10.5 4.02V2.5ZM10 15C8.67392 15 7.40215 14.4732 6.46447 13.5355C5.52678 12.5979 5 11.3261 5 10C5 8.67392 5.52678 7.40215 6.46447 6.46447C7.40215 5.52678 8.67392 5 10 5C11.3261 5 12.5979 5.52678 13.5355 6.46447C14.4732 7.40215 15 8.67392 15 10C15 11.3261 14.4732 12.5979 13.5355 13.5355C12.5979 14.4732 11.3261 15 10 15Z" fill="#FF5733"/>
</svg>
